<?xml version="1.0" encoding="iso-8859-1"?>
<!-- Generator: Adobe Illustrator 19.0.0, SVG Export Plug-In . SVG Version: 6.00 Build 0)  -->
<svg version="1.1" id="Layer_1" xmlns="http://www.w3.org/2000/svg" xmlns:xlink="http://www.w3.org/1999/xlink" x="0px" y="0px"
	 viewBox="0 0 395.636 395.636" style="enable-background:new 0 0 395.636 395.636;" xml:space="preserve">
<g>
	<circle style="fill:#FFFFFF;" cx="197.818" cy="51.329" r="45.123"/>
	<path style="fill:#FFFFFF;" d="M307.846,170.602v19.135H87.79v-19.135c0-15.451,6.788-29.35,17.842-39.434
		c11.055-10.02,26.376-16.226,43.378-16.226h97.681C280.63,115.006,307.846,139.701,307.846,170.602z"/>
</g>
<g>
	<rect x="191.612" y="159.483" style="fill:#193651;" width="11.766" height="12.347"/>
	<rect x="191.612" y="134.141" style="fill:#193651;" width="11.766" height="12.347"/>
</g>
<rect x="87.143" y="233.697" style="fill:#FFFFFF;" width="221.285" height="155.798"/>
<g>
	<polygon style="fill:#193651;" points="12.347,57.471 126.125,57.471 126.125,45.123 0,45.123 0,301.059 63.677,301.059 
		63.677,288.711 12.347,288.711 	"/>
	<path style="fill:#193651;" d="M197.818,103.24c28.444,0,51.329-22.885,51.329-51.329C249.147,22.885,226.263,0,197.818,0
		s-51.329,22.885-51.329,51.329S169.374,103.24,197.818,103.24z M197.818,12.347c21.657,0,38.917,17.325,38.917,38.917
		s-17.325,38.917-38.917,38.917s-38.917-17.325-38.917-38.917S176.162,12.347,197.818,12.347z"/>
</g>
<rect x="111.257" y="255.935" style="fill:#2EA2DB;" width="173.123" height="109.446"/>
<rect x="64.905" y="189.802" style="fill:#FFFFFF;" width="265.826" height="43.895"/>
<g>
	<polygon style="fill:#193651;" points="267.055,45.123 267.055,57.471 383.289,57.471 383.289,288.711 332.606,288.711 
		332.606,301.059 395.636,301.059 395.636,45.123 	"/>
	<path style="fill:#193651;" d="M314.053,183.596v-12.994c0-34.004-30.319-61.802-67.362-61.802H149.01
		c-37.107,0-67.362,27.798-67.362,61.802v12.994H58.699v56.242h22.238v155.798h233.697V239.838h22.238v-56.242H314.053
		L314.053,183.596z M93.931,170.602c0-27.216,24.76-49.455,55.014-49.455h97.034c30.319,0,55.014,22.238,55.014,49.455v12.994
		H93.931V170.602z M93.349,383.289l0.646-143.451h207.709l0.646,143.451H93.349z M324.525,227.491H71.111v-31.547h253.414V227.491z"
		/>
	<rect x="226.263" y="295.499" style="fill:#193651;" width="12.347" height="11.766"/>
	<rect x="191.612" y="295.499" style="fill:#193651;" width="12.347" height="11.766"/>
	<rect x="157.026" y="295.499" style="fill:#193651;" width="12.347" height="11.766"/>
</g>
<g>
</g>
<g>
</g>
<g>
</g>
<g>
</g>
<g>
</g>
<g>
</g>
<g>
</g>
<g>
</g>
<g>
</g>
<g>
</g>
<g>
</g>
<g>
</g>
<g>
</g>
<g>
</g>
<g>
</g>
</svg>
